<?xml version="1.0" encoding="UTF-8"?>
<svg version="1.1" xmlns="http://www.w3.org/2000/svg" width="128" height="128">
<path d="M0 0 C1.97226563 -0.02320313 1.97226563 -0.02320313 3.984375 -0.046875 C11.34902622 -0.01729809 17.87946292 0.08171999 24 4.5 C29.65297665 10.69264362 30.86824411 16.18558801 30.65625 24.37109375 C30.65063049 25.87640404 30.65063049 25.87640404 30.64489746 27.41212463 C30.631537 29.51569068 30.60386916 31.61921046 30.5625 33.72241211 C30.49970302 36.95277701 30.48050146 40.18119212 30.46875 43.41210938 C30.45042676 45.46096149 30.42968059 47.50979368 30.40625 49.55859375 C30.39350037 51.01005043 30.39350037 51.01005043 30.38049316 52.49082947 C30.36127808 53.38258377 30.34206299 54.27433807 30.32226562 55.19311523 C30.30860962 55.97871323 30.29495361 56.76431122 30.28088379 57.57371521 C30 59.5 30 59.5 28 61.5 C25.64697266 61.75396729 25.64697266 61.75396729 22.6640625 61.75878906 C21.54950684 61.76509338 20.43495117 61.77139771 19.28662109 61.77789307 C18.07828613 61.7738446 16.86995117 61.76979614 15.625 61.765625 C13.77189209 61.76849518 13.77189209 61.76849518 11.88134766 61.77142334 C8.59408593 61.7731361 5.30701213 61.76506699 2.01977539 61.75390625 C0.0020547 61.75000397 -2.01549201 61.75389171 -4.03320312 61.76074219 C-7.89721828 61.77306004 -11.76097428 61.77160978 -15.625 61.765625 C-16.83333496 61.76967346 -18.04166992 61.77372192 -19.28662109 61.77789307 C-20.95845459 61.76843658 -20.95845459 61.76843658 -22.6640625 61.75878906 C-23.64842285 61.75719788 -24.6327832 61.75560669 -25.64697266 61.75396729 C-28 61.5 -28 61.5 -30 59.5 C-30.28088379 57.57371521 -30.28088379 57.57371521 -30.32226562 55.19311523 C-30.34148071 54.30136093 -30.3606958 53.40960663 -30.38049316 52.49082947 C-30.38899292 51.52319168 -30.39749268 50.55555389 -30.40625 49.55859375 C-30.41765015 48.56175064 -30.42905029 47.56490753 -30.4407959 46.53785706 C-30.45971829 44.42200984 -30.47277275 42.30610338 -30.48046875 40.19018555 C-30.49978068 36.97402491 -30.56175129 33.76047636 -30.625 30.54492188 C-30.6380706 28.48699431 -30.6485674 26.42904848 -30.65625 24.37109375 C-30.6809436 23.41762558 -30.70563721 22.46415741 -30.7310791 21.48179626 C-30.68493624 14.45666223 -28.76545661 9.7203956 -24 4.5 C-16.83325244 -0.67351616 -8.50787537 -0.10009265 0 0 Z " fill="#6C62FF" transform="translate(64,57.5)"/>
<path d="M0 0 C5.52821971 3.82722903 9.11567852 8.00238234 10.5703125 14.578125 C11.63127794 22.65952136 10.28637088 28.53778124 5.8125 35.3125 C0.77433318 40.12674829 -4.65647758 42.6033732 -11.63671875 43.09765625 C-18.94686068 42.79558427 -25.03149751 40.32339552 -30 35 C-34.23495294 28.89948901 -35.84176441 21.95345977 -34.59375 14.609375 C-32.7547381 8.17283336 -29.57432807 3.02365643 -23.66796875 -0.3203125 C-15.39072333 -3.95670603 -8.1332731 -4.20162864 0 0 Z " fill="#6B62FF" transform="translate(76,12)"/>
<path d="M0 0 C17.37398569 -0.75085652 17.37398569 -0.75085652 23 4 C29.58707741 10.81301938 29.24688279 16.50139655 29.29516602 25.5480957 C29.31235651 27.79375573 29.35624 30.03793433 29.40039062 32.28320312 C29.41052001 33.71613503 29.41903535 35.14907943 29.42578125 36.58203125 C29.44036377 37.88374268 29.45494629 39.1854541 29.4699707 40.52661133 C28.91943173 44.59545183 27.9184822 46.16291612 25 49 C21.97406288 50.84549587 19.75729527 51.24047814 16.234375 51.1953125 C15.34492187 51.18886719 14.45546875 51.18242188 13.5390625 51.17578125 C12.61867188 51.15902344 11.69828125 51.14226562 10.75 51.125 C9.81414062 51.11597656 8.87828125 51.10695312 7.9140625 51.09765625 C5.60911343 51.07413636 3.3046884 51.04126853 1 51 C1.00523682 49.70376709 1.01047363 48.40753418 1.01586914 47.07202148 C1.03402763 42.24325252 1.04547158 37.41448655 1.05493164 32.58569336 C1.0599471 30.49942517 1.06676105 28.41316047 1.07543945 26.3269043 C1.08762736 23.32079199 1.09325631 20.31472634 1.09765625 17.30859375 C1.10539818 15.91911781 1.10539818 15.91911781 1.11329651 14.50157166 C1.11372084 9.55563335 0.84322739 4.87554661 0 0 Z " fill="#6B62FF" transform="translate(99,68)"/>
<path d="M0 0 C0.74958984 0.00451172 1.49917969 0.00902344 2.27148438 0.01367188 C4.11852383 0.02543646 5.96552213 0.04337135 7.8125 0.0625 C7.64951416 1.00488525 7.48652832 1.94727051 7.31860352 2.91821289 C6.63448112 7.73361701 6.68779193 12.51599097 6.71484375 17.37109375 C6.7162587 18.33781509 6.71767365 19.30453644 6.71913147 20.30055237 C6.72469779 23.36706732 6.73724401 26.43350738 6.75 29.5 C6.75501935 31.58788957 6.7595815 33.67578028 6.76367188 35.76367188 C6.77465618 40.8633098 6.79189745 45.96289223 6.8125 51.0625 C3.60447767 51.17948258 0.39700975 51.25000607 -2.8125 51.3125 C-3.71613281 51.34601563 -4.61976562 51.37953125 -5.55078125 51.4140625 C-11.29241534 51.49788198 -14.6878759 51.00854259 -19.1875 47.0625 C-22.47395242 42.13282137 -21.55937363 36.26719001 -21.55810547 30.49389648 C-21.56246488 28.26793113 -21.59874995 26.04397212 -21.63671875 23.81835938 C-21.64259018 22.39323591 -21.64655739 20.96810307 -21.6484375 19.54296875 C-21.65665527 18.25285889 -21.66487305 16.96274902 -21.67333984 15.63354492 C-20.95411231 10.34704183 -18.2638927 6.55007711 -14.125 3.25 C-9.46688411 -0.2188097 -5.58300891 -0.06338787 0 0 Z " fill="#6B62FF" transform="translate(21.1875,67.9375)"/>
<path d="M0 0 C4.72795749 2.65892582 8.09745904 5.86576901 9.72265625 11.1171875 C10.48937181 16.07687878 10.40095209 20.49234724 8.03515625 24.9921875 C5.05872044 29.01439805 2.49337485 31.52694797 -2.27734375 33.1171875 C-7.89337559 33.71609999 -12.9485745 33.74610458 -17.73828125 30.5 C-22.21439807 26.47831129 -24.55857653 22.15634135 -24.90234375 16.1171875 C-24.55857653 10.07803365 -22.21439807 5.75606371 -17.73828125 1.734375 C-12.40973759 -1.87691289 -5.96415581 -2.31200551 0 0 Z " fill="#6B62FF" transform="translate(110.27734375,30.8828125)"/>
<path d="M0 0 C4.74083207 2.65239861 8.08846983 5.86324511 9.7265625 11.11328125 C10.63469263 16.40638257 10.31958435 20.7663765 7.6640625 25.48828125 C4.95300833 29.2292331 2.18043328 31.73490732 -2.2734375 33.11328125 C-7.23312878 33.87999681 -11.64859724 33.79157709 -16.1484375 31.42578125 C-20.17064805 28.44934544 -22.68319797 25.88399985 -24.2734375 21.11328125 C-24.87234999 15.49724941 -24.90235458 10.4420505 -21.65625 5.65234375 C-15.86113971 -0.79758126 -8.25444128 -3.21951576 0 0 Z " fill="#6B62FF" transform="translate(32.2734375,30.88671875)"/>
</svg>
